<svg xmlns="http://www.w3.org/2000/svg" viewBox="0 0 136.37 109.1"><rect x="6.03" y="7.2" width="124.8" height="95.47" style="fill:#fff"/><path d="M143.21,109.18a11.4,11.4,0,0,1-11.36,11.37H18.2A11.39,11.39,0,0,1,6.84,109.18V22.81A11.39,11.39,0,0,1,18.2,11.45H131.85a11.39,11.39,0,0,1,11.36,11.36ZM18.2,20.54a2.34,2.34,0,0,0-2.27,2.27v86.37a2.34,2.34,0,0,0,2.27,2.27H131.85a2.34,2.34,0,0,0,2.27-2.27V22.81a2.34,2.34,0,0,0-2.27-2.27Z" transform="translate(-6.84 -11.45)"/><polygon points="118.19 90.92 18.18 90.92 18.18 77.28 40.91 54.55 52.27 65.91 88.64 29.55 118.19 59.1 118.19 90.92" style="fill:#4162ff"/><path d="M38.66,56.91A13.64,13.64,0,1,1,52.29,43.27,13.64,13.64,0,0,1,38.66,56.91Z" transform="translate(-6.84 -11.45)" style="fill:#f91556"/></svg>